<svg width="32" height="32" viewBox="0 0 32 32" fill="none" xmlns="http://www.w3.org/2000/svg">
<g clip-path="url(#clip0_1_425)">
<path d="M14.0001 22.6667H5.33341V20H14.0001C14.8517 20.0003 15.6871 20.2337 16.4156 20.6748C17.1441 21.1159 17.738 21.748 18.133 22.5026C18.5279 23.2571 18.7088 24.1054 18.6561 24.9554C18.6034 25.8054 18.3191 26.6248 17.834 27.3248C17.3489 28.0248 16.6815 28.5787 15.9041 28.9265C15.1267 29.2743 14.2689 29.4027 13.4237 29.2978C12.5785 29.1929 11.7782 28.8587 11.1093 28.3315C10.4405 27.8042 9.92871 27.104 9.62942 26.3067L12.1267 25.3693C12.255 25.7111 12.4743 26.0112 12.7609 26.2372C13.0475 26.4632 13.3905 26.6064 13.7528 26.6514C14.115 26.6964 14.4826 26.6414 14.8158 26.4924C15.149 26.3434 15.4351 26.106 15.643 25.806C15.8509 25.506 15.9728 25.1549 15.9954 24.7906C16.018 24.4263 15.9405 24.0627 15.7713 23.7393C15.602 23.4159 15.3475 23.145 15.0353 22.9559C14.7231 22.7668 14.3651 22.6668 14.0001 22.6667ZM6.66675 14.6667H24.6667C25.5184 14.667 26.3538 14.9003 27.0823 15.3415C27.8108 15.7826 28.4047 16.4147 28.7996 17.1692C29.1946 17.9238 29.3755 18.772 29.3228 19.6221C29.2701 20.4721 28.9858 21.2915 28.5007 21.9915C28.0156 22.6915 27.3482 23.2454 26.5707 23.5932C25.7933 23.9409 24.9356 24.0694 24.0904 23.9645C23.2452 23.8596 22.4448 23.5254 21.776 22.9982C21.1072 22.4709 20.5954 21.7707 20.2961 20.9733L22.7934 20.036C22.9217 20.3777 23.141 20.6779 23.4276 20.9038C23.7142 21.1298 24.0572 21.2731 24.4194 21.3181C24.7817 21.3631 25.1493 21.3081 25.4825 21.159C25.8157 21.01 26.1017 20.7727 26.3097 20.4727C26.5176 20.1727 26.6395 19.8215 26.6621 19.4572C26.6847 19.0929 26.6072 18.7294 26.4379 18.406C26.2687 18.0826 26.0142 17.8117 25.702 17.6226C25.3898 17.4335 25.0318 17.3335 24.6667 17.3333H6.66675C5.60588 17.3333 4.58847 16.9119 3.83832 16.1618C3.08818 15.4116 2.66675 14.3942 2.66675 13.3333C2.66675 12.2725 3.08818 11.255 3.83832 10.5049C4.58847 9.75475 5.60588 9.33333 6.66675 9.33333H18.0001C18.3651 9.33317 18.7231 9.23314 19.0353 9.04406C19.3475 8.85498 19.602 8.58407 19.7713 8.26067C19.9405 7.93728 20.018 7.57373 19.9954 7.20943C19.9728 6.84513 19.8509 6.49396 19.643 6.19398C19.4351 5.894 19.149 5.65663 18.8158 5.50761C18.4826 5.35859 18.115 5.30359 17.7528 5.34857C17.3905 5.39356 17.0475 5.53681 16.7609 5.76281C16.4743 5.9888 16.255 6.28893 16.1267 6.63066L13.6294 5.69466C14.014 4.67173 14.7454 3.81618 15.696 3.27707C16.6466 2.73797 17.7563 2.54948 18.8316 2.74446C19.9069 2.93944 20.8797 3.50552 21.5805 4.34407C22.2814 5.18262 22.6658 6.24048 22.6667 7.33333C22.6667 8.571 22.1751 9.75799 21.2999 10.6332C20.4247 11.5083 19.2378 12 18.0001 12H6.66675C6.31313 12 5.97399 12.1405 5.72394 12.3905C5.47389 12.6406 5.33341 12.9797 5.33341 13.3333C5.33341 13.6869 5.47389 14.0261 5.72394 14.2761C5.97399 14.5262 6.31313 14.6667 6.66675 14.6667Z" fill="#5B59E2"/>
</g>
<defs>
<clipPath id="clip0_1_425">
<rect width="32" height="32" fill="white"/>
</clipPath>
</defs>
</svg>
