<svg width="32" height="32" viewBox="0 0 32 32" fill="none" xmlns="http://www.w3.org/2000/svg">
<g clip-path="url(#clip0_1_405)">
<path d="M25.3334 26.6667H6.66675V28C6.66675 28.3537 6.52627 28.6928 6.27622 28.9429C6.02618 29.1929 5.68704 29.3334 5.33341 29.3334H4.00008C3.64646 29.3334 3.30732 29.1929 3.05727 28.9429C2.80722 28.6928 2.66675 28.3537 2.66675 28V14.6667L5.97341 6.94938C6.17918 6.46938 6.52136 6.06036 6.95749 5.77308C7.39362 5.4858 7.9045 5.33291 8.42675 5.33338H23.5734C24.0952 5.33343 24.6055 5.48657 25.0411 5.77382C25.4767 6.06106 25.8185 6.46979 26.0241 6.94938L29.3334 14.6667V28C29.3334 28.3537 29.1929 28.6928 28.9429 28.9429C28.6928 29.1929 28.3537 29.3334 28.0001 29.3334H26.6667C26.3131 29.3334 25.974 29.1929 25.7239 28.9429C25.4739 28.6928 25.3334 28.3537 25.3334 28V26.6667ZM26.6667 17.3334H5.33341V24H26.6667V17.3334ZM5.56808 14.6667H26.4321L23.5747 8.00004H8.42675L5.56941 14.6667H5.56808ZM8.66675 22.6667C8.13632 22.6667 7.62761 22.456 7.25253 22.0809C6.87746 21.7058 6.66675 21.1971 6.66675 20.6667C6.66675 20.1363 6.87746 19.6276 7.25253 19.2525C7.62761 18.8774 8.13632 18.6667 8.66675 18.6667C9.19718 18.6667 9.70589 18.8774 10.081 19.2525C10.456 19.6276 10.6667 20.1363 10.6667 20.6667C10.6667 21.1971 10.456 21.7058 10.081 22.0809C9.70589 22.456 9.19718 22.6667 8.66675 22.6667ZM23.3334 22.6667C22.803 22.6667 22.2943 22.456 21.9192 22.0809C21.5441 21.7058 21.3334 21.1971 21.3334 20.6667C21.3334 20.1363 21.5441 19.6276 21.9192 19.2525C22.2943 18.8774 22.803 18.6667 23.3334 18.6667C23.8638 18.6667 24.3726 18.8774 24.7476 19.2525C25.1227 19.6276 25.3334 20.1363 25.3334 20.6667C25.3334 21.1971 25.1227 21.7058 24.7476 22.0809C24.3726 22.456 23.8638 22.6667 23.3334 22.6667Z" fill="#5B59E2"/>
</g>
<defs>
<clipPath id="clip0_1_405">
<rect width="32" height="32" fill="white"/>
</clipPath>
</defs>
</svg>
