<svg width="32" height="32" viewBox="0 0 32 32" fill="none" xmlns="http://www.w3.org/2000/svg">
<g clip-path="url(#clip0_1_422)">
<path d="M16.9427 23.724C18.0454 24.8267 19.0601 25.3333 20.0001 25.3333C20.5041 25.3333 20.9067 25.244 21.6494 24.9653L22.1721 24.7627C23.5721 24.2 24.2787 24 25.3334 24C26.9521 24 28.5054 24.7267 29.9814 26.1067L30.2761 26.3907L28.3907 28.276C27.2881 27.1733 26.2734 26.6667 25.3334 26.6667C24.8294 26.6667 24.4268 26.756 23.6841 27.0347L23.1614 27.2373C21.7614 27.7987 21.0547 28 20.0001 28C18.3814 28 16.8281 27.2733 15.3521 25.8933L15.0574 25.6093L16.9427 23.724ZM12.0001 4C12.0001 5.06087 12.4215 6.07828 13.1717 6.82843C13.9218 7.57857 14.9392 8 16.0001 8C17.0609 8 18.0784 7.57857 18.8285 6.82843C19.5787 6.07828 20.0001 5.06087 20.0001 4H28.0001C28.3537 4 28.6928 4.14048 28.9429 4.39052C29.1929 4.64057 29.3334 4.97971 29.3334 5.33333V14.6667C29.3334 15.0203 29.1929 15.3594 28.9429 15.6095C28.6928 15.8595 28.3537 16 28.0001 16H22.6641V13.3333L26.6667 13.332V6.66533H22.1107L22.0881 6.72C21.5824 7.85047 20.772 8.81783 19.7476 9.51371C18.7232 10.2096 17.5253 10.6065 16.2881 10.66L16.0001 10.6667C14.7126 10.6668 13.4526 10.2942 12.3723 9.59383C11.292 8.89349 10.4375 7.89537 9.91208 6.72L9.88808 6.66667H5.33341V13.3333L9.33208 13.332V25.3333H13.3334V28H8.00008C7.64646 28 7.30732 27.8595 7.05727 27.6095C6.80722 27.3594 6.66675 27.0203 6.66675 26.6667L6.66541 15.9987L4.00008 16C3.64646 16 3.30732 15.8595 3.05727 15.6095C2.80722 15.3594 2.66675 15.0203 2.66675 14.6667V5.33333C2.66675 4.97971 2.80722 4.64057 3.05727 4.39052C3.30732 4.14048 3.64646 4 4.00008 4H12.0001ZM16.9427 18.3907C18.0454 19.4933 19.0601 20 20.0001 20C20.5041 20 20.9067 19.9107 21.6494 19.632L22.1721 19.4293C23.5721 18.8667 24.2787 18.6667 25.3334 18.6667C26.9521 18.6667 28.5054 19.3933 29.9814 20.7733L30.2761 21.0573L28.3907 22.9427C27.2881 21.84 26.2734 21.3333 25.3334 21.3333C24.8294 21.3333 24.4268 21.4227 23.6841 21.7013L23.1614 21.904C21.7614 22.4653 21.0547 22.6667 20.0001 22.6667C18.3814 22.6667 16.8281 21.94 15.3521 20.56L15.0574 20.276L16.9427 18.3907Z" fill="#5B59E2"/>
</g>
<defs>
<clipPath id="clip0_1_422">
<rect width="32" height="32" fill="white"/>
</clipPath>
</defs>
</svg>
