<svg width="32" height="32" viewBox="0 0 32 32" fill="none" xmlns="http://www.w3.org/2000/svg">
<g clip-path="url(#clip0_1_414)">
<path d="M0.919922 9.32936C5.18538 5.87378 10.5104 3.99191 15.9999 4.00003C21.7133 4.00003 26.9599 5.99603 31.0799 9.32936L29.4053 11.404C25.6135 8.33213 20.8798 6.65928 15.9999 6.66669C10.9213 6.66669 6.25859 8.44003 2.59459 11.404L0.919922 9.32936ZM5.10792 14.516C8.18872 12.02 12.0349 10.6607 15.9999 10.6667C20.1253 10.6667 23.9146 12.108 26.8919 14.5147L25.2159 16.5894C22.609 14.4778 19.3547 13.328 15.9999 13.3334C12.5093 13.3334 9.30259 14.5534 6.78392 16.5894L5.10792 14.5147V14.516ZM9.29725 19.7027C11.193 18.1666 13.5599 17.3299 15.9999 17.3334C18.5386 17.3334 20.8706 18.22 22.7026 19.7014L21.0266 21.776C19.6047 20.6243 17.8297 19.9972 15.9999 20C14.0959 20 12.3466 20.6654 10.9733 21.776L9.29725 19.7014V19.7027ZM13.4866 24.8894C14.1973 24.313 15.0849 23.9989 15.9999 24C16.9519 24 17.8266 24.3334 18.5133 24.888L15.9999 28L13.4866 24.888V24.8894Z" fill="#5B59E2"/>
</g>
<defs>
<clipPath id="clip0_1_414">
<rect width="32" height="32" fill="white"/>
</clipPath>
</defs>
</svg>
